<?xml version="1.0" encoding="utf-8"?>
<!-- Generator: Adobe Illustrator 25.0.1, SVG Export Plug-In . SVG Version: 6.00 Build 0)  -->
<svg version="1.1" xmlns="http://www.w3.org/2000/svg" xmlns:xlink="http://www.w3.org/1999/xlink" x="0px" y="0px"
	 viewBox="0 0 49.6 49.6" style="enable-background:new 0 0 49.6 49.6;" xml:space="preserve">
<style type="text/css">
	.st0{fill:none;stroke:#0F0812;stroke-width:1.6;stroke-miterlimit:10;}
	.st1{fill:none;stroke:#9000FF;stroke-width:1.6;stroke-miterlimit:10;}
	.st2{display:none;}
	.st3{display:inline;}
	.st4{display:inline;fill:none;stroke:#0F0812;stroke-width:1.6;stroke-miterlimit:10;}
</style>
<g id="Layer_1">
	<g>
		<path id="Path_502" class="st0" d="M48.8,24.8c0,13.3-10.7,24-24,24c-13.3,0-24-10.7-24-24c0-13.3,10.7-24,24-24c0,0,0,0,0,0
			C38.1,0.8,48.8,11.5,48.8,24.8z"/>
		<path id="Path_503" class="st0" d="M18.4,20.8c0,1.7-1.4,3.1-3.1,3.1c-1.7,0-3.1-1.4-3.1-3.1c0-1.7,1.4-3.1,3.1-3.1l0,0
			C17,17.8,18.4,19.1,18.4,20.8"/>
		<path id="Path_504" class="st0" d="M37.4,20.8c0,1.7-1.4,3.1-3.1,3.1c-1.7,0-3.1-1.4-3.1-3.1s1.4-3.1,3.1-3.1
			C36,17.8,37.4,19.1,37.4,20.8L37.4,20.8"/>
		<path class="st1" d="M18.8,34.6c3.3,3.3,8.7,3.3,12,0"/>
	</g>
</g>
<g id="Layer_2" class="st2">
	<g class="st3">
		<circle class="st0" cx="76.9" cy="75.2" r="6.5"/>
		<path class="st0" d="M64.3,94.4c0-7,5.6-12.6,12.6-12.6c7,0,12.6,5.6,12.6,12.6"/>
	</g>
	<path class="st4" d="M46.6,0.9H20.1c-0.6,0-1,0.4-1,1v17.8c0,0.6,0.4,1,1,1h26.5c0.6,0,1-0.4,1-1V1.9C47.6,1.3,47.2,0.9,46.6,0.9z"
		/>
</g>
</svg>
