<?xml version="1.0" encoding="utf-8"?>
<!-- Generator: Adobe Illustrator 25.0.1, SVG Export Plug-In . SVG Version: 6.00 Build 0)  -->
<svg version="1.1" xmlns="http://www.w3.org/2000/svg" xmlns:xlink="http://www.w3.org/1999/xlink" x="0px" y="0px"
	 viewBox="0 0 48.6 48.6" style="enable-background:new 0 0 48.6 48.6;" xml:space="preserve">
<style type="text/css">
	.st0{fill:none;stroke:#0F0812;stroke-width:1.6;stroke-linecap:round;stroke-linejoin:round;stroke-miterlimit:10;}
	.st1{fill:none;stroke:#9000FF;stroke-width:1.6;stroke-linecap:round;stroke-linejoin:round;stroke-miterlimit:10;}
	.st2{display:none;}
	.st3{display:inline;}
	.st4{fill:none;stroke:#0F0812;stroke-width:1.6;stroke-miterlimit:10;}
	.st5{display:inline;fill:none;stroke:#0F0812;stroke-width:1.6;stroke-miterlimit:10;}
</style>
<g id="Layer_1">
	<g>
		<path class="st0" d="M33.6,45.9c-2.6,1.1-5.4,1.8-8.4,1.9c-13,0.5-23.9-9.6-24.4-22.6S10.5,1.3,23.4,0.8s23.9,9.6,24.4,22.6
			c0.2,4.2-0.8,8.2-2.6,11.7"/>
		<g>
			<path class="st0" d="M29.9,15.3L29.9,15.3c-0.9-1.6-2.9-2.6-5-2.6h0c-3.4,0-6.2,2.4-6.2,5.3v0.6c0,2,1.4,3.9,3.5,4.8l4.2,1.7
				c2.1,0.9,3.5,2.7,3.5,4.8v0.7c0,2.9-2.8,5.3-6.2,5.3h0c-2.1,0-4.1-1-5-2.6v0"/>
			<line class="st0" x1="24.3" y1="9.8" x2="24.3" y2="38.8"/>
		</g>
		<g>
			<line class="st1" x1="41.3" y1="26.6" x2="41.3" y2="47.8"/>
			<polyline class="st1" points="47.8,41.3 41.3,47.8 34.8,41.3 			"/>
		</g>
	</g>
</g>
<g id="Layer_2" class="st2">
	<g class="st3">
		<circle class="st4" cx="76.4" cy="74.7" r="6.5"/>
		<path class="st4" d="M63.8,93.9c0-7,5.6-12.6,12.6-12.6S89,86.9,89,93.9"/>
	</g>
	<path class="st5" d="M46.1,0.4H19.6c-0.6,0-1,0.4-1,1v17.8c0,0.6,0.4,1,1,1h26.5c0.6,0,1-0.4,1-1V1.4C47.1,0.8,46.7,0.4,46.1,0.4z"
		/>
</g>
</svg>
