<?xml version="1.0" encoding="utf-8"?>
<!-- Generator: Adobe Illustrator 25.0.1, SVG Export Plug-In . SVG Version: 6.00 Build 0)  -->
<svg version="1.1" xmlns="http://www.w3.org/2000/svg" xmlns:xlink="http://www.w3.org/1999/xlink" x="0px" y="0px"
	 viewBox="0 0 59.6 45.4" style="enable-background:new 0 0 59.6 45.4;" xml:space="preserve">
<style type="text/css">
	.st0{fill:#FFFFFF;stroke:#9000FF;stroke-width:1.6;stroke-linecap:round;stroke-linejoin:round;stroke-miterlimit:10;}
	.st1{fill:#FFFFFF;stroke:#0F0812;stroke-width:1.6;stroke-linecap:round;stroke-linejoin:round;stroke-miterlimit:10;}
	.st2{display:none;}
	.st3{display:inline;}
	.st4{fill:none;stroke:#0F0812;stroke-width:1.6;stroke-miterlimit:10;}
	.st5{display:inline;fill:none;stroke:#0F0812;stroke-width:1.6;stroke-miterlimit:10;}
</style>
<g id="Layer_1">
	<g>
		<path class="st0" d="M55.6,36.5H4V2.2c0-0.8,0.6-1.4,1.4-1.4h48.7c0.8,0,1.4,0.6,1.4,1.4V36.5z"/>
		<circle class="st1" cx="29.8" cy="20.9" r="6.6"/>
		<g>
			<path class="st0" d="M18.3,36.5H0.8c0.9,1.6,2.6,2.7,4.5,2.7h11.5C17.2,38.2,17.7,37.3,18.3,36.5z"/>
			<path class="st0" d="M41.3,36.5c0.6,0.8,1.1,1.7,1.5,2.7h11.5c1.9,0,3.6-1,4.5-2.7H41.3z"/>
		</g>
		<path class="st1" d="M15.7,44.6c0-7.8,6.3-14.1,14.1-14.1s14.1,6.3,14.1,14.1H15.7z"/>
	</g>
</g>
<g id="Layer_2" class="st2">
	<g class="st3">
		<circle class="st4" cx="81.9" cy="73.1" r="6.5"/>
		<path class="st4" d="M69.3,92.3c0-7,5.6-12.6,12.6-12.6s12.6,5.6,12.6,12.6"/>
	</g>
	<path class="st5" d="M51.6-1.2H25.1c-0.6,0-1,0.4-1,1v17.8c0,0.6,0.4,1,1,1h26.5c0.6,0,1-0.4,1-1V-0.2C52.6-0.8,52.2-1.2,51.6-1.2z
		"/>
</g>
</svg>
